<mxfile host="app.diagrams.net" agent="Mozilla/5.0 (Macintosh; Intel Mac OS X 10_15_7) AppleWebKit/537.36 (KHTML, like Gecko) Chrome/140.0.0.0 Safari/537.36" version="28.2.3">
  <diagram name="Page-1" id="D66pqEfIekpqwowxHt1H">
    <mxGraphModel dx="1364" dy="757" grid="1" gridSize="10" guides="1" tooltips="1" connect="1" arrows="1" fold="1" page="1" pageScale="1" pageWidth="850" pageHeight="1100" math="0" shadow="0">
      <root>
        <mxCell id="0" />
        <mxCell id="1" parent="0" />
        <mxCell id="rlANI1Zl3EylsUHr_fz9-1" value="媒体素材审核系统" style="rounded=1;whiteSpace=wrap;html=1;" parent="1" vertex="1">
          <mxGeometry x="90" y="150" width="120" height="60" as="geometry" />
        </mxCell>
        <mxCell id="rlANI1Zl3EylsUHr_fz9-2" value="媒体素材审核系统" style="rounded=1;whiteSpace=wrap;html=1;" parent="1" vertex="1">
          <mxGeometry x="90" y="240" width="120" height="60" as="geometry" />
        </mxCell>
        <mxCell id="rlANI1Zl3EylsUHr_fz9-3" value="媒体素材审核系统" style="rounded=1;whiteSpace=wrap;html=1;" parent="1" vertex="1">
          <mxGeometry x="90" y="330" width="120" height="60" as="geometry" />
        </mxCell>
        <mxCell id="rlANI1Zl3EylsUHr_fz9-4" value="DSP 创意系统" style="rounded=1;whiteSpace=wrap;html=1;" parent="1" vertex="1">
          <mxGeometry x="840" y="150" width="120" height="60" as="geometry" />
        </mxCell>
        <mxCell id="rlANI1Zl3EylsUHr_fz9-5" value="DSP 创意系统" style="rounded=1;whiteSpace=wrap;html=1;" parent="1" vertex="1">
          <mxGeometry x="840" y="240" width="120" height="60" as="geometry" />
        </mxCell>
        <mxCell id="rlANI1Zl3EylsUHr_fz9-6" value="DSP 创意系统" style="rounded=1;whiteSpace=wrap;html=1;" parent="1" vertex="1">
          <mxGeometry x="840" y="330" width="120" height="60" as="geometry" />
        </mxCell>
        <mxCell id="rlANI1Zl3EylsUHr_fz9-7" value="adx 先审后投&lt;br&gt;素材审核" style="rounded=1;whiteSpace=wrap;html=1;" parent="1" vertex="1">
          <mxGeometry x="420" y="150" width="240" height="240" as="geometry" />
        </mxCell>
        <mxCell id="rlANI1Zl3EylsUHr_fz9-8" value="" style="html=1;shadow=0;dashed=0;align=center;verticalAlign=middle;shape=mxgraph.arrows2.twoWayArrow;dy=0.6;dx=35;" parent="1" vertex="1">
          <mxGeometry x="700" y="240" width="100" height="60" as="geometry" />
        </mxCell>
        <mxCell id="rlANI1Zl3EylsUHr_fz9-9" value="" style="html=1;shadow=0;dashed=0;align=center;verticalAlign=middle;shape=mxgraph.arrows2.twoWayArrow;dy=0.6;dx=35;" parent="1" vertex="1">
          <mxGeometry x="270" y="240" width="100" height="60" as="geometry" />
        </mxCell>
        <mxCell id="rlANI1Zl3EylsUHr_fz9-10" value="" style="rounded=1;whiteSpace=wrap;html=1;" parent="1" vertex="1">
          <mxGeometry x="90" y="550" width="870" height="400" as="geometry" />
        </mxCell>
        <mxCell id="rlANI1Zl3EylsUHr_fz9-11" value="三方素材管理API&lt;br&gt;？&amp;nbsp;&lt;br&gt;&lt;br&gt;三方开发or 公共API" style="rounded=1;whiteSpace=wrap;html=1;" parent="1" vertex="1">
          <mxGeometry x="770" y="600" width="150" height="70" as="geometry" />
        </mxCell>
        <mxCell id="rlANI1Zl3EylsUHr_fz9-13" value="ssp 素材审核对接" style="rounded=1;whiteSpace=wrap;html=1;" parent="1" vertex="1">
          <mxGeometry x="130" y="600" width="150" height="70" as="geometry" />
        </mxCell>
        <mxCell id="rlANI1Zl3EylsUHr_fz9-14" value="素材要素存储" style="shape=cylinder3;whiteSpace=wrap;html=1;boundedLbl=1;backgroundOutline=1;size=15;" parent="1" vertex="1">
          <mxGeometry x="420" y="830" width="180" height="80" as="geometry" />
        </mxCell>
        <mxCell id="rlANI1Zl3EylsUHr_fz9-15" value="ssp 素材管理web服务" style="rounded=1;whiteSpace=wrap;html=1;" parent="1" vertex="1">
          <mxGeometry x="435" y="610" width="150" height="70" as="geometry" />
        </mxCell>
        <mxCell id="rlANI1Zl3EylsUHr_fz9-16" value="ssp 素材审核对接" style="rounded=1;whiteSpace=wrap;html=1;" parent="1" vertex="1">
          <mxGeometry x="140" y="610" width="150" height="70" as="geometry" />
        </mxCell>
        <mxCell id="rlANI1Zl3EylsUHr_fz9-17" value="ssp 素材审核对接" style="rounded=1;whiteSpace=wrap;html=1;" parent="1" vertex="1">
          <mxGeometry x="150" y="620" width="150" height="70" as="geometry" />
        </mxCell>
        <mxCell id="rlANI1Zl3EylsUHr_fz9-18" value="ssp 素材审核对接" style="rounded=1;whiteSpace=wrap;html=1;" parent="1" vertex="1">
          <mxGeometry x="160" y="630" width="150" height="70" as="geometry" />
        </mxCell>
        <mxCell id="rlANI1Zl3EylsUHr_fz9-19" value="素材审核分发" style="rounded=1;whiteSpace=wrap;html=1;" parent="1" vertex="1">
          <mxGeometry x="435" y="730" width="150" height="70" as="geometry" />
        </mxCell>
        <mxCell id="rlANI1Zl3EylsUHr_fz9-20" value="&lt;h1 style=&quot;margin-top: 0px;&quot;&gt;独立ADX问题&lt;/h1&gt;&lt;p&gt;如何确定哪些dsp的创建送给哪家审核，业务逻辑怎么跑决定了adx这个二道贩子如何定义逻辑&lt;/p&gt;&lt;p&gt;&lt;br&gt;&lt;/p&gt;" style="text;html=1;whiteSpace=wrap;overflow=hidden;rounded=0;" parent="1" vertex="1">
          <mxGeometry x="135" y="740" width="180" height="190" as="geometry" />
        </mxCell>
        <mxCell id="rlANI1Zl3EylsUHr_fz9-26" value="可投放素材索引" style="shape=cylinder3;whiteSpace=wrap;html=1;boundedLbl=1;backgroundOutline=1;size=15;" parent="1" vertex="1">
          <mxGeometry x="700" y="830" width="180" height="80" as="geometry" />
        </mxCell>
        <mxCell id="rlANI1Zl3EylsUHr_fz9-27" style="edgeStyle=orthogonalEdgeStyle;rounded=0;orthogonalLoop=1;jettySize=auto;html=1;entryX=0;entryY=0.5;entryDx=0;entryDy=0;entryPerimeter=0;" parent="1" source="rlANI1Zl3EylsUHr_fz9-14" target="rlANI1Zl3EylsUHr_fz9-26" edge="1">
          <mxGeometry relative="1" as="geometry" />
        </mxCell>
        <mxCell id="rlANI1Zl3EylsUHr_fz9-28" value="三方素材管理API&lt;br&gt;？&amp;nbsp;&lt;br&gt;&lt;br&gt;三方开发or 公共API" style="rounded=1;whiteSpace=wrap;html=1;" parent="1" vertex="1">
          <mxGeometry x="780" y="630" width="150" height="70" as="geometry" />
        </mxCell>
      </root>
    </mxGraphModel>
  </diagram>
</mxfile>
